# xmcd
#
# Track frame offsets:
#	150
#	2971
#	14359
#	32026
#	58861
#	73971
#	102592
#	122799
#	134907
#	156653
#	194548
#	196547
#	211559
#	212065
#	234051
#	249405
#
# Disc length: 3645 seconds
#
# Revision: 0
# Processed by: cddbd v1.5.2PL0 Copyright (c) Steve Scherf et al.
# Submitted via: EasyCDDAExtractor 10.0.3.1
#
DISCID=ec0e3b10
DTITLE=Clay Kirkland - Blues and Beyond The Beyond Blues
DYEAR=2004
DGENRE=Blues
TTITLE0=Not Fade Away Intro
TTITLE1=Not Fade Away
TTITLE2=I Lied
TTITLE3=Made up my Mind
TTITLE4=Honest I Do
TTITLE5=Invitation to the Blues
TTITLE6=Love Muscle
TTITLE7=God is a Feeling
TTITLE8=Wintertime
TTITLE9=Take Five
TTITLE10=Prelude to Unrequited Love
TTITLE11=She Wasn't Ready to be Kissed
TTITLE12=Fly Interlude
TTITLE13=I Am
TTITLE14=Om Chant
TTITLE15=Tales of Love and Longing
EXTD=
EXTT0=
EXTT1=
EXTT2=
EXTT3=
EXTT4=
EXTT5=
EXTT6=
EXTT7=
EXTT8=
EXTT9=
EXTT10=
EXTT11=
EXTT12=
EXTT13=
EXTT14=
EXTT15=
PLAYORDER=
